# xmcd CD database file
#
# Track frame offsets:
#	150
#	10903
#	27559
#	44335
#	55490
#	69016
#	81589
#	91755
#	105795
#	121329
#	138473
#	150359
#	170846
#	187702
#	201774
#	214138
#
# Disc length: 3166 seconds
#
# Revision: 0
# Processed by: cddbd v1.5.2PL0 Copyright (c) Steve Scherf et al.
# Submitted via: CDex 1.70beta2
#
DISCID=cf0c5c10
DTITLE=Ray Charles - The Genius At His Best CD08
DYEAR=1900
DGENRE=Blues
TTITLE0=I'm Moving On
TTITLE1=Am I Blue
TTITLE2=Come Rain Or Come Shine
TTITLE3=Deed I Do
TTITLE4=I Believe To My Soul
TTITLE5=That's Enough
TTITLE6=Sticks And Stones
TTITLE7=Tell The Truth
TTITLE8=Just For A Thrill
TTITLE9=Stompin' Room Only
TTITLE10=Strike Up The Band
TTITLE11=Mister C.
TTITLE12=I'm Gonna Move To The Outskirts Of Town
TTITLE13=One Mint Julep
TTITLE14=Let's Go
TTITLE15=Birth Of The Blues
EXTD=
EXTT0=
EXTT1=
EXTT2=
EXTT3=
EXTT4=
EXTT5=
EXTT6=
EXTT7=
EXTT8=
EXTT9=
EXTT10=
EXTT11=
EXTT12=
EXTT13=
EXTT14=
EXTT15=
PLAYORDER=
